<?xml version="1.0" encoding="UTF-8"?>
<svg version="1.1" xmlns="http://www.w3.org/2000/svg" width="512" height="512">
<path d="M0 0 C0.65919434 0.38043457 1.31838867 0.76086914 1.99755859 1.15283203 C5.40719338 3.13105146 8.80013968 5.13626592 12.1875 7.15234375 C17.90716261 10.54991074 23.67266081 13.86735517 29.4375 17.1875 C30.54407959 17.82510254 31.65065918 18.46270508 32.79077148 19.11962891 C35.0620547 20.42810508 37.3334587 21.73637161 39.60498047 23.04443359 C45.0716998 26.19332054 50.53574887 29.34683264 56 32.5 C58.16665311 33.7500235 60.33331979 35.00002347 62.5 36.25 C75.5 43.75 88.5 51.25 101.5 58.75 C102.5737085 59.36939453 103.64741699 59.98878906 104.75366211 60.62695312 C106.90830624 61.870123 109.06276757 63.11360975 111.21704102 64.35742188 C116.22754121 67.24983147 121.23962635 70.13935227 126.25863647 73.01696777 C128.01728749 74.02548314 129.77533209 75.0350477 131.53320312 76.04492188 C133.72472231 77.30350518 135.91734504 78.56016987 138.11132812 79.81445312 C154.94877754 89.49301268 169.8372132 98.69641959 175.45703125 118.3828125 C176.7546937 124.63773224 177.14750858 130.7956192 177.13371277 137.17034912 C177.13597833 137.95275978 177.13824388 138.73517045 177.14057809 139.54129052 C177.14686712 142.14180019 177.14609203 144.74225705 177.14526367 147.34277344 C177.14825836 149.21608548 177.15166161 151.0893969 177.15544128 152.96270752 C177.1642543 158.03726115 177.16661827 163.11179791 177.16725707 168.18635845 C177.16796915 171.36114107 177.17010646 174.53591943 177.17275429 177.71070099 C177.18199904 188.79899873 177.1860903 199.88728447 177.18530273 210.97558594 C177.18470229 221.29109209 177.19524977 231.60654589 177.2110464 241.92203879 C177.22414751 250.7953528 177.22948555 259.66864975 177.22884732 268.54197335 C177.22859308 273.83404905 177.23140364 279.12607821 177.24202538 284.41814423 C177.2517496 289.3987845 177.25175602 294.37933414 177.24450874 299.35997772 C177.24346824 301.18036024 177.2457938 303.00074854 177.2518692 304.82112122 C177.30774389 322.73341701 176.40840018 338.96420199 163.4765625 352.6484375 C162.65929687 353.42445313 161.84203125 354.20046875 161 355 C160.52771973 355.45697266 160.05543945 355.91394531 159.56884766 356.38476562 C154.33732253 361.18467807 148.33780833 364.38279567 142.125 367.75 C139.86511846 368.99470229 137.60600432 370.24079885 135.34765625 371.48828125 C134.25340332 372.0910791 133.15915039 372.69387695 132.03173828 373.31494141 C128.17088001 375.46082994 124.35834973 377.67912488 120.5625 379.9375 C113.59275468 384.0739316 106.58497796 388.14121754 99.5625 392.1875 C98.45527588 392.82550537 97.34805176 393.46351074 96.20727539 394.12084961 C93.93662932 395.42889477 91.66587642 396.73675448 89.39501953 398.04443359 C83.9283002 401.19332054 78.46425113 404.34683264 73 407.5 C70.83334689 408.7500235 68.66668021 410.00002347 66.5 411.25 C65.4275 411.86875 64.355 412.4875 63.25 413.125 C60 415 56.75 416.875 53.5 418.75 C52.42709717 419.3689917 51.35419434 419.9879834 50.2487793 420.62573242 C48.08621417 421.8733474 45.92361661 423.12090616 43.76098633 424.3684082 C37.17032796 428.17031017 30.58088208 431.97430241 23.99243164 435.7800293 C20.7386122 437.65800014 17.48267355 439.53225602 14.2265625 441.40625 C10.16910844 443.74277955 6.12321439 446.09754346 2.0859375 448.46875 C0.24479743 449.54167656 -1.59634811 450.61459373 -3.4375 451.6875 C-4.24678955 452.16856201 -5.0560791 452.64962402 -5.88989258 453.14526367 C-19.81575864 461.22142908 -33.64088819 464.17882465 -49.39453125 460.2265625 C-56.71207343 457.73717112 -63.32808178 453.85646874 -70 450 C-70.65919434 449.61956543 -71.31838867 449.23913086 -71.99755859 448.84716797 C-75.40719338 446.86894854 -78.80013968 444.86373408 -82.1875 442.84765625 C-87.90716261 439.45008926 -93.67266081 436.13264483 -99.4375 432.8125 C-100.54407959 432.17489746 -101.65065918 431.53729492 -102.79077148 430.88037109 C-105.0620547 429.57189492 -107.3334587 428.26362839 -109.60498047 426.95556641 C-115.0716998 423.80667946 -120.53574887 420.65316736 -126 417.5 C-128.16665311 416.2499765 -130.33331979 414.99997653 -132.5 413.75 C-139 410 -139 410 -145.5 406.25 C-146.57266113 405.63116943 -147.64532227 405.01233887 -148.75048828 404.37475586 C-150.91557071 403.12564482 -153.08060982 401.87645871 -155.24560547 400.62719727 C-160.68615706 397.48797691 -166.12747216 394.35009437 -171.5703125 391.21484375 C-185.2355434 383.34156606 -198.89729958 375.46242647 -212.49169922 367.46728516 C-214.66470729 366.19613677 -216.84694834 364.9439133 -219.03515625 363.69921875 C-232.30814229 355.95276257 -240.22667932 346.78091623 -245.3125 332.25 C-246.68380238 325.76747967 -247.14802548 319.44322965 -247.13371277 312.82965088 C-247.13597833 312.04724022 -247.13824388 311.26482955 -247.14057809 310.45870948 C-247.14686712 307.85819981 -247.14609203 305.25774295 -247.14526367 302.65722656 C-247.14825836 300.78391452 -247.15166161 298.9106031 -247.15544128 297.03729248 C-247.1642543 291.96273885 -247.16661827 286.88820209 -247.16725707 281.81364155 C-247.16796915 278.63885893 -247.17010646 275.46408057 -247.17275429 272.28929901 C-247.18199904 261.20100127 -247.1860903 250.11271553 -247.18530273 239.02441406 C-247.18470229 228.70890791 -247.19524977 218.39345411 -247.2110464 208.07796121 C-247.22414751 199.2046472 -247.22948555 190.33135025 -247.22884732 181.45802665 C-247.22859308 176.16595095 -247.23140364 170.87392179 -247.24202538 165.58185577 C-247.2517496 160.6012155 -247.25175602 155.62066586 -247.24450874 150.64002228 C-247.24346824 148.81963976 -247.2457938 146.99925146 -247.2518692 145.17887878 C-247.30702923 127.49568886 -246.37552664 111.72727908 -234 98 C-233.54616943 97.47841309 -233.09233887 96.95682617 -232.62475586 96.41943359 C-227.56779969 90.94176432 -221.66505435 87.58834108 -215.1875 84 C-213.44405382 83.0145739 -211.70061738 82.02913004 -209.95779419 81.04260254 C-208.15915686 80.02627078 -206.35786773 79.01476947 -204.55615234 78.00390625 C-199.00888081 74.88565211 -193.50715277 71.68837366 -188 68.5 C-185.83354229 67.24963789 -183.666875 65.99963881 -181.5 64.75 C-180.4275 64.13125 -179.355 63.5125 -178.25 62.875 C-142.5 42.25 -142.5 42.25 -139.24951172 40.37475586 C-137.08442929 39.12564482 -134.91939018 37.87645871 -132.75439453 36.62719727 C-127.31384294 33.48797691 -121.87252784 30.35009437 -116.4296875 27.21484375 C-114.24473328 25.95583049 -112.05983723 24.69671626 -109.875 23.4375 C-108.80314453 22.81979736 -107.73128906 22.20209473 -106.62695312 21.56567383 C-100.25696224 17.89079025 -93.9010509 14.19285077 -87.55541992 10.47607422 C-79.41627201 5.71159978 -71.27138737 0.95604257 -63.0625 -3.6875 C-62.3715625 -4.08557861 -61.680625 -4.48365723 -60.96875 -4.89379883 C-39.57907916 -16.87316561 -20.0846573 -11.60923298 0 0 Z M-50 27 C-51.36318359 27.76908691 -51.36318359 27.76908691 -52.75390625 28.55371094 C-55.5198651 30.13296474 -58.26123001 31.74909109 -61 33.375 C-63.1034897 34.61313001 -65.20768605 35.85006006 -67.3125 37.0859375 C-68.94832031 38.0464502 -68.94832031 38.0464502 -70.6171875 39.02636719 C-76.38746924 42.39292013 -82.19444779 45.6948233 -88 49 C-97.72180742 54.53886005 -107.40896202 60.13375712 -117.06689453 65.78344727 C-124.32211726 70.02617273 -131.59353319 74.23998054 -138.875 78.4375 C-140.48580444 79.3661084 -140.48580444 79.3661084 -142.12915039 80.31347656 C-146.55350496 82.86322796 -150.97852587 85.41182081 -155.40380859 87.95996094 C-161.96112839 91.73615338 -168.51609256 95.51635321 -175.06640625 99.3046875 C-176.96647372 100.40272916 -178.86745823 101.49918612 -180.76953125 102.59375 C-183.20346167 103.9949933 -185.63353765 105.40266801 -188.0625 106.8125 C-188.76511963 107.21509033 -189.46773926 107.61768066 -190.19165039 108.0324707 C-193.684946 109.91675513 -193.684946 109.91675513 -196 113 C-195.02281006 113.56376343 -195.02281006 113.56376343 -194.02587891 114.13891602 C-192.64021729 114.93833618 -192.64021729 114.93833618 -191.2265625 115.75390625 C-190.18725586 116.35348145 -189.14794922 116.95305664 -188.07714844 117.57080078 C-185.74437958 118.91667973 -183.41168522 120.2626869 -181.07910156 121.60888672 C-175.14074008 125.03583366 -169.20113928 128.46057374 -163.2578125 131.87890625 C-157.8868689 134.96833037 -152.52310612 138.06997735 -147.16162109 141.17578125 C-143.97503982 143.01440173 -140.77903352 144.83582317 -137.58203125 146.65625 C-135.57521525 147.81196954 -133.5686912 148.96819622 -131.5625 150.125 C-130.17659668 150.90544678 -130.17659668 150.90544678 -128.76269531 151.70166016 C-123.35612014 154.84231976 -120.05365443 157.13239421 -118.34765625 163.39453125 C-117.61423048 169.61357987 -118.16661019 173.9277708 -122 179 C-125.50695752 182.42142197 -128.28684883 183.26231898 -133.05078125 183.4296875 C-139.62569652 183.3277256 -144.07757722 180.94653693 -149.625 177.625 C-151.06311035 176.80189331 -151.06311035 176.80189331 -152.53027344 175.9621582 C-155.36762709 174.33098713 -158.18517234 172.66966486 -161 171 C-162.42895098 170.16670447 -163.85856788 169.33454907 -165.2890625 168.50390625 C-167.96705669 166.94193411 -170.63628618 165.36612998 -173.30078125 163.78125 C-178.74866696 160.54713522 -184.22541189 157.36286574 -189.70861816 154.18911743 C-191.38746786 153.21648582 -193.06437054 152.24049591 -194.74121094 151.2644043 C-195.79469727 150.65508057 -196.84818359 150.04575684 -197.93359375 149.41796875 C-198.86228271 148.87938232 -199.79097168 148.3407959 -200.74780273 147.78588867 C-203.5406306 146.25225487 -206.35178915 144.80818174 -209.20326233 143.38838196 C-210.10204133 142.94043431 -211.00082033 142.49248667 -211.92683506 142.03096485 C-212.61097949 141.69074645 -213.29512392 141.35052805 -214 141 C-214.07012663 164.05285907 -214.12300611 187.10570052 -214.15543652 210.15864468 C-214.17089573 220.8628795 -214.19196721 231.56704799 -214.22631836 242.27124023 C-214.25624962 251.60260646 -214.27558188 260.93392463 -214.28226548 270.26533753 C-214.28617141 275.20480394 -214.29533128 280.14413292 -214.31719017 285.08355522 C-214.33761416 289.73661245 -214.34382186 294.38947613 -214.33932304 299.04257393 C-214.3401456 300.74650246 -214.34607594 302.45043774 -214.35761642 304.15432739 C-214.93071031 317.7139851 -214.93071031 317.7139851 -209.56973553 329.685462 C-204.37336477 334.72392083 -197.45967917 337.94578559 -191.1875 341.4375 C-189.93911445 342.14030471 -188.69123896 342.84401612 -187.44384766 343.54858398 C-184.88148163 344.99557077 -182.31747061 346.43957615 -179.75244141 347.88183594 C-174.10153459 351.0651034 -168.48866788 354.31415368 -162.875 357.5625 C-160.72661416 358.80347486 -158.57817664 360.04436024 -156.4296875 361.28515625 C-155.36975586 361.89762207 -154.30982422 362.51008789 -153.21777344 363.14111328 C-147.81329355 366.26324605 -142.40652588 369.38141204 -137 372.5 C-134.8333225 373.74998122 -132.66665583 374.99998121 -130.5 376.25 C-129.4275 376.86875 -128.355 377.4875 -127.25 378.125 C-124 380 -120.75 381.875 -117.5 383.75 C-116.42693604 384.36907227 -115.35387207 384.98814453 -114.24829102 385.62597656 C-112.08731012 386.87270256 -109.92634002 388.11944727 -107.76538086 389.36621094 C-102.26181149 392.54145883 -96.75803968 395.71635495 -91.25390625 398.890625 C-90.14337891 399.5312085 -89.03285156 400.17179199 -87.88867188 400.83178711 C-85.69626926 402.09615201 -83.50356786 403.35999897 -81.31054688 404.62329102 C-76.26933721 407.52879483 -71.23418434 410.44357174 -66.21484375 413.38671875 C-65.32917725 413.90459961 -64.44351074 414.42248047 -63.53100586 414.95605469 C-61.88774342 415.91788708 -60.24650284 416.88318523 -58.60766602 417.85253906 C-55.04280153 420.16972676 -55.04280153 420.16972676 -51 421 C-50.99635437 420.27416718 -50.99270874 419.54833435 -50.98895264 418.80050659 C-50.95101178 411.94440556 -50.89409005 405.08869341 -50.81609726 398.23293877 C-50.77666697 394.70865959 -50.74445718 391.18462859 -50.72900391 387.66015625 C-50.71089674 383.60376248 -50.66092678 379.54829512 -50.609375 375.4921875 C-50.60814636 374.23260223 -50.60691772 372.97301697 -50.60565186 371.67526245 C-50.42340489 360.76213179 -50.42340489 360.76213179 -46 356 C-40.77740143 351.94369602 -35.34659858 352.22602456 -29 353 C-24.38492407 355.1860886 -22.26888081 357.49510393 -20 362 C-19.60127258 364.84114075 -19.60127258 364.84114075 -19.56762695 367.98364258 C-19.54783279 369.16448929 -19.52803864 370.345336 -19.50764465 371.56196594 C-19.49805977 373.45908577 -19.49805977 373.45908577 -19.48828125 375.39453125 C-19.47033005 376.69702316 -19.45237885 377.99951508 -19.43388367 379.34147644 C-19.38649089 382.7920939 -19.35661275 386.24264646 -19.33044434 389.69348145 C-19.30058425 393.21961276 -19.25407278 396.74552072 -19.20898438 400.27148438 C-19.12307375 407.1808621 -19.05567433 414.09031428 -19 421 C-15.06804528 419.7282356 -11.63344163 418.38267032 -8.078125 416.26953125 C-7.14887207 415.72176025 -6.21961914 415.17398926 -5.26220703 414.60961914 C-4.26817871 414.01656982 -3.27415039 413.42352051 -2.25 412.8125 C-0.08632451 411.53580222 2.07775166 410.25978329 4.2421875 408.984375 C5.35819336 408.32501953 6.47419922 407.66566406 7.62402344 406.98632812 C13.0212633 403.81074644 18.44764 400.6862344 23.875 397.5625 C26.05991376 396.30341652 28.24480949 395.04430177 30.4296875 393.78515625 C31.51475586 393.16012207 32.59982422 392.53508789 33.71777344 391.89111328 C39.14659942 388.76319852 44.57319281 385.63141552 50 382.5 C52.16665583 381.24998121 54.3333225 379.99998122 56.5 378.75 C57.5725 378.13125 58.645 377.5125 59.75 376.875 C69.5 371.25 69.5 371.25 72.75097656 369.37451172 C74.91447476 368.12628966 77.07788643 366.87791761 79.24121094 365.62939453 C84.70565017 362.47594744 90.17163645 359.32523904 95.640625 356.1796875 C101.04738436 353.06908004 106.44925836 349.95015745 111.84716797 346.82421875 C113.96204554 345.6005572 116.07827523 344.37922978 118.19580078 343.16015625 C121.23928122 341.40620625 124.27656973 339.6419785 127.3125 337.875 C128.21967773 337.35470215 129.12685547 336.8344043 130.06152344 336.29833984 C138.26750403 331.62920515 138.26750403 331.62920515 143.11118889 323.81668758 C144.03376191 319.85502131 144.24621213 316.42613926 144.24050903 312.36268616 C144.24221788 311.62574931 144.24392673 310.88881246 144.24568737 310.1295442 C144.24896324 307.67748887 144.23801025 305.22571147 144.22705078 302.77368164 C144.22648626 301.00912482 144.22680404 299.24456753 144.22793579 297.48001099 C144.22850869 292.7016109 144.21676455 287.9233116 144.20278788 283.14493489 C144.19027004 278.1467943 144.18910918 273.14865129 144.18673706 268.15049744 C144.1805254 258.69110345 144.1641188 249.2317558 144.14403808 239.7723822 C144.12166935 229.00096818 144.1106832 218.22955193 144.10064721 207.45812047 C144.07975231 185.3053878 144.0445824 163.15269682 144 141 C141.75293172 142.11654924 139.50663043 143.23459727 137.26074219 144.35351562 C136.62796356 144.66774475 135.99518494 144.98197388 135.3432312 145.3057251 C130.86533457 147.53865522 126.52406282 149.90339507 122.25 152.5 C120.81708719 153.35530849 119.38344101 154.20938908 117.94921875 155.0625 C117.17239746 155.52527344 116.39557617 155.98804688 115.59521484 156.46484375 C107.14123954 161.46565247 98.60974805 166.33410615 90.08642578 171.21533203 C87.26845517 172.84477082 84.47328607 174.50636524 81.68359375 176.18359375 C80.12252275 177.10177832 78.56133407 178.01976285 77 178.9375 C76.32590088 179.35644531 75.65180176 179.77539062 74.95727539 180.20703125 C69.69890442 183.25041922 65.01581259 183.67988273 59 183 C55.10012586 181.70004195 53.39822154 180.45203526 50.6875 177.375 C47.28968193 170.57936385 47.57199513 164.96084898 49.91796875 157.84765625 C51.29869798 155.48994893 52.54418359 155.15534447 55 154 C58.434905 152.11594616 61.84025047 150.17914454 65.25 148.25 C66.26779541 147.67435303 67.28559082 147.09870605 68.33422852 146.50561523 C78.56791256 140.70205669 88.7281058 134.77543289 98.87841797 128.82763672 C104.41473547 125.58621072 109.95782115 122.35639026 115.5 119.125 C117.53127822 117.94015254 119.56253094 116.75526138 121.59375 115.5703125 C123.0625 114.71354167 124.53125 113.85677083 126 113 C123.07370751 109.82559186 120.15654511 107.7465497 116.3984375 105.63671875 C115.28194824 105.00499756 114.16545898 104.37327637 113.01513672 103.72241211 C111.80176234 103.04409998 110.58838331 102.36579616 109.375 101.6875 C108.11301227 100.97545541 106.85146267 100.26263379 105.59033203 99.54907227 C103.64596335 98.44906737 101.70133341 97.34955572 99.75534058 96.25242615 C93.43720944 92.69008611 87.15340573 89.06935324 80.875 85.4375 C78.72659533 84.19655775 76.5781578 82.95567238 74.4296875 81.71484375 C72.83979004 80.79614502 72.83979004 80.79614502 71.21777344 79.85888672 C65.81329355 76.73675395 60.40652588 73.61858796 55 70.5 C52.8333225 69.25001878 50.66665583 68.00001879 48.5 66.75 C46.89125 65.821875 46.89125 65.821875 45.25 64.875 C42 63 38.75 61.125 35.5 59.25 C34.42693604 58.63092773 33.35387207 58.01185547 32.24829102 57.37402344 C30.08731012 56.12729744 27.92634002 54.88055273 25.76538086 53.63378906 C20.26181149 50.45854117 14.75803968 47.28364505 9.25390625 44.109375 C8.14394287 43.46887207 7.03397949 42.82836914 5.89038086 42.16845703 C3.69313814 40.90179037 1.49475409 39.63710124 -0.70483398 38.37451172 C-5.68082487 35.51467688 -10.63548124 32.63099163 -15.5390625 29.6484375 C-16.39314697 29.13506836 -17.24723145 28.62169922 -18.12719727 28.09277344 C-19.68531227 27.15368698 -21.23612371 26.20230502 -22.77709961 25.23535156 C-33.28814851 18.94019903 -39.70677586 21.01549034 -50 27 Z " fill="#2CD4BE" transform="translate(291,31)"/>
<path d="M0 0 C5.68310722 4.24247924 8.07222979 9.420915 10.39453125 15.8984375 C10.99706356 17.502729 11.5999335 19.10689373 12.203125 20.7109375 C12.78846553 22.2940103 13.3731273 23.87733427 13.95703125 25.4609375 C21.52394462 45.89019274 32.23977127 61.9581932 52.12890625 72.07421875 C57.49894499 74.45733403 62.92079765 76.46303996 68.48828125 78.32421875 C69.46224854 78.65736084 70.43621582 78.99050293 71.43969727 79.33374023 C73.36203429 79.98574333 75.29212543 80.6154552 77.23022461 81.21899414 C85.01864759 83.85517246 89.64843364 88.03612541 93.45703125 95.3359375 C94.39683908 101.20973644 93.96267738 106.41096655 91.33203125 111.7734375 C84.11557498 119.9394275 74.67998837 122.22773146 64.62304688 125.53515625 C44.82675035 132.27295572 28.64504846 144.69502065 18.95703125 163.4609375 C16.38006894 169.48049489 14.29808804 175.71001465 12.1315918 181.88574219 C11.38454617 184.00320869 10.62252741 186.11485793 9.859375 188.2265625 C9.5325901 189.18299652 9.5325901 189.18299652 9.19920349 190.15875244 C7.13074218 195.86151035 4.26223306 200.0076581 -0.91796875 203.2734375 C-7.15457244 205.6433469 -11.50167836 205.67625803 -17.734375 203.640625 C-24.56001433 200.15273485 -27.06994791 196.28627458 -29.48046875 189.2734375 C-29.76994385 188.4882373 -30.05941895 187.70303711 -30.35766602 186.89404297 C-31.26891582 184.42188107 -32.15776451 181.94253154 -33.04296875 179.4609375 C-40.25347558 159.38326492 -49.98750037 141.66916175 -69.84716797 131.47753906 C-76.50472159 128.39525606 -83.46566685 125.99800499 -90.37109375 123.5390625 C-108.18342478 117.14304796 -108.18342478 117.14304796 -112.109375 110.71484375 C-114.53144356 105.31678064 -114.4566224 100.15375896 -113.04296875 94.4609375 C-109.47583173 87.81868237 -105.57358877 84.32028871 -98.4765625 81.875 C-97.84242935 81.65073334 -97.2082962 81.42646667 -96.5549469 81.19540405 C-94.53374511 80.48133874 -92.50788979 79.78213073 -90.48046875 79.0859375 C-68.29779083 71.44472839 -49.94845302 60.701677 -39.15527344 38.94238281 C-36.23039049 32.41724886 -33.8975246 25.62698562 -31.54345703 18.87939453 C-28.35031204 9.81034459 -25.57194943 2.99011625 -16.73046875 -1.7890625 C-10.37962253 -3.56139168 -5.771347 -2.84314779 0 0 Z M-11.04296875 56.4609375 C-12.13252133 58.19033814 -13.13777143 59.97301719 -14.10546875 61.7734375 C-17.80022053 68.28141314 -22.08519034 73.87043562 -27.04296875 79.4609375 C-27.6565625 80.15832031 -28.27015625 80.85570312 -28.90234375 81.57421875 C-36.18137174 89.33540458 -45.42011979 95.94200083 -55.04296875 100.4609375 C-52.69931249 103.03361555 -50.22050621 104.63669129 -47.23046875 106.3984375 C-32.11031451 115.93853482 -20.77831713 128.04368712 -12.19921875 143.73046875 C-11.81765625 144.30152344 -11.43609375 144.87257813 -11.04296875 145.4609375 C-10.38296875 145.4609375 -9.72296875 145.4609375 -9.04296875 145.4609375 C-7.6534879 143.42405019 -6.37244095 141.3848741 -5.10546875 139.2734375 C5.1315217 122.91385508 17.95918331 110.74317243 34.95703125 101.4609375 C31.89997646 99.09604606 28.71941967 97.03062478 25.45703125 94.9609375 C10.84453297 85.21927198 -1.35081975 72.34553787 -9.04296875 56.4609375 C-9.70296875 56.4609375 -10.36296875 56.4609375 -11.04296875 56.4609375 Z " fill="#2CD4BE" transform="translate(266.04296875,154.5390625)"/>
</svg>
